<svg id="visual" viewBox="0 0 900 600" width="900" height="600" xmlns="http://www.w3.org/2000/svg" xmlns:xlink="http://www.w3.org/1999/xlink" version="1.1"><rect x="0" y="0" width="900" height="600" fill="#ffffff"></rect><defs><linearGradient id="grad1_0" x1="33.3%" y1="100%" x2="100%" y2="0%"><stop offset="20%" stop-color="#ffffff" stop-opacity="1"></stop><stop offset="80%" stop-color="#ffffff" stop-opacity="1"></stop></linearGradient></defs><defs><linearGradient id="grad2_0" x1="0%" y1="100%" x2="66.7%" y2="0%"><stop offset="20%" stop-color="#ffffff" stop-opacity="1"></stop><stop offset="80%" stop-color="#ffffff" stop-opacity="1"></stop></linearGradient></defs><g transform="translate(900, 600)"><path d="M-216.3 0C-209.9 -21.5 -203.5 -43.1 -195.9 -63.7C-188.3 -84.3 -179.4 -103.9 -167.5 -121.7C-155.5 -139.4 -140.4 -155.2 -123.4 -169.9C-106.5 -184.6 -87.7 -198.2 -66.9 -205.7C-46 -213.3 -23 -214.8 0 -216.3L0 0Z" fill="#271A2B"></path></g><g transform="translate(0, 0)"><path d="M216.3 0C215.2 23.3 214 46.5 205.7 66.9C197.5 87.2 182.2 104.5 168.3 122.3C154.4 140 141.9 158.1 125.2 172.3C108.5 186.5 87.7 196.8 66.1 203.5C44.6 210.2 22.3 213.3 0 216.3L0 0Z" fill="#271A2B"></path></g></svg>