<svg id="visual" viewBox="0 0 900 600" width="900" height="600" xmlns="http://www.w3.org/2000/svg" xmlns:xlink="http://www.w3.org/1999/xlink" version="1.1"><rect x="0" y="0" width="900" height="600" fill="#fff"></rect><defs><linearGradient id="grad1_0" x1="33.3%" y1="100%" x2="100%" y2="0%"><stop offset="20%" stop-color="#ffffff" stop-opacity="1"></stop><stop offset="80%" stop-color="#ffffff" stop-opacity="1"></stop></linearGradient></defs><defs><linearGradient id="grad2_0" x1="0%" y1="100%" x2="66.7%" y2="0%"><stop offset="20%" stop-color="#ffffff" stop-opacity="1"></stop><stop offset="80%" stop-color="#ffffff" stop-opacity="1"></stop></linearGradient></defs><g transform="translate(900, 600)"><path d="M-216.3 0C-213.2 -28.8 -210 -57.6 -198.6 -82.3C-187.3 -106.9 -167.7 -127.4 -147.8 -147.8C-127.8 -168.2 -107.5 -188.5 -82.8 -199.9C-58.1 -211.3 -29 -213.8 0 -216.3L0 0Z" fill="#716EA7"></path></g><g transform="translate(0, 0)"><path d="M216.3 0C209.3 27.3 202.3 54.6 191.2 79.2C180.2 103.9 165.2 125.9 147.1 147.1C129 168.2 107.8 188.5 82.8 199.9C57.8 211.3 28.9 213.8 0 216.3L0 0Z" fill="#716EA7"></path></g></svg>