<svg id="visual" viewBox="0 0 900 600" width="900" height="600" xmlns="http://www.w3.org/2000/svg" xmlns:xlink="http://www.w3.org/1999/xlink" version="1.1"><rect x="0" y="0" width="900" height="600" fill="#fff"></rect><defs><linearGradient id="grad1_0" x1="33.3%" y1="100%" x2="100%" y2="0%"><stop offset="20%" stop-color="#ffffff" stop-opacity="1"></stop><stop offset="80%" stop-color="#ffffff" stop-opacity="1"></stop></linearGradient></defs><defs><linearGradient id="grad2_0" x1="0%" y1="100%" x2="66.7%" y2="0%"><stop offset="20%" stop-color="#ffffff" stop-opacity="1"></stop><stop offset="80%" stop-color="#ffffff" stop-opacity="1"></stop></linearGradient></defs><g transform="translate(900, 600)"><path d="M-297.5 0C-290 -52.6 -282.5 -105.1 -257.6 -148.7C-232.7 -192.3 -190.3 -227 -144.5 -250.3C-98.7 -273.6 -49.3 -285.5 0 -297.5L0 0Z" fill="#271A2B"></path></g><g transform="translate(0, 0)"><path d="M297.5 0C283.7 48.3 269.9 96.5 246.8 142.5C223.8 188.5 191.4 232.2 148.7 257.6C106 283.1 53 290.3 0 297.5L0 0Z" fill="#271A2B"></path></g></svg>