<svg id="visual" viewBox="0 0 900 600" width="900" height="600" xmlns="http://www.w3.org/2000/svg" xmlns:xlink="http://www.w3.org/1999/xlink" version="1.1"><rect x="0" y="0" width="900" height="600" fill="#fff"></rect><defs><linearGradient id="grad1_0" x1="33.3%" y1="100%" x2="100%" y2="0%"><stop offset="20%" stop-color="#ffffff" stop-opacity="1"></stop><stop offset="80%" stop-color="#ffffff" stop-opacity="1"></stop></linearGradient></defs><defs><linearGradient id="grad2_0" x1="0%" y1="100%" x2="66.7%" y2="0%"><stop offset="20%" stop-color="#ffffff" stop-opacity="1"></stop><stop offset="80%" stop-color="#ffffff" stop-opacity="1"></stop></linearGradient></defs><g transform="translate(900, 600)"><path d="M-243.4 0C-232.9 -40 -222.5 -79.9 -203.5 -117.5C-184.5 -155.1 -157 -190.2 -121.7 -210.8C-86.3 -231.3 -43.2 -237.4 0 -243.4L0 0Z" fill="#271A2B"></path></g><g transform="translate(0, 0)"><path d="M243.4 0C233.9 40.5 224.3 81 205.2 118.5C186.2 156 157.5 190.5 121.7 210.8C85.9 231.1 42.9 237.2 0 243.4L0 0Z" fill="#271A2B"></path></g></svg>