<svg id="visual" viewBox="0 0 900 600" width="900" height="600" xmlns="http://www.w3.org/2000/svg" xmlns:xlink="http://www.w3.org/1999/xlink" version="1.1"><rect x="0" y="0" width="900" height="600" fill="#fff"></rect><defs><linearGradient id="grad1_0" x1="33.3%" y1="100%" x2="100%" y2="0%"><stop offset="20%" stop-color="#ffffff" stop-opacity="1"></stop><stop offset="80%" stop-color="#ffffff" stop-opacity="1"></stop></linearGradient></defs><defs><linearGradient id="grad2_0" x1="0%" y1="100%" x2="66.7%" y2="0%"><stop offset="20%" stop-color="#ffffff" stop-opacity="1"></stop><stop offset="80%" stop-color="#ffffff" stop-opacity="1"></stop></linearGradient></defs><g transform="translate(900, 600)"><path d="M-162.2 0C-158 -28.3 -153.7 -56.6 -140.5 -81.1C-127.4 -105.7 -105.4 -126.5 -80.5 -139.4C-55.6 -152.3 -27.8 -157.3 0 -162.2L0 0Z" fill="#271A2B"></path></g><g transform="translate(0, 0)"><path d="M162.2 0C157.3 27.8 152.3 55.6 139.4 80.5C126.5 105.4 105.7 127.4 81.1 140.5C56.6 153.7 28.3 158 0 162.2L0 0Z" fill="#271A2B"></path></g></svg>